<?xml version="1.0" encoding="utf-8"?>
<!-- Generator: Adobe Illustrator 21.0.0, SVG Export Plug-In . SVG Version: 6.00 Build 0)  -->
<svg version="1.1" id="Layer_1" xmlns="http://www.w3.org/2000/svg" xmlns:xlink="http://www.w3.org/1999/xlink" x="0px" y="0px"
	 viewBox="0 0 16 16" style="enable-background:new 0 0 16 16;" xml:space="preserve">
<style type="text/css">
	.st0{fill:#A7AAA7;}
	.st1{fill:#4AAE50;}
	.st2{fill:#1E8A36;}
</style>
<g>
	<path class="st0" d="M8.1,12.8l-0.5,1.5c0,0,0.3,0.3,0.3,0.8s0,0.8,0,0.8s0,0.2,0.2,0c0.1-0.2,0.5-1.7,0.5-1.7L8.1,12.8z"/>
	<path class="st1" d="M7.9,0.8c0,0-0.3,0.5-0.7,1C6.2,2.7,4.8,4,4.5,7.6c-0.4,5.1,3.2,6.7,3.2,6.7l0.5-1.4l0.4,1.4
		c0,0,2.9-1.5,3-5.8S7.9,0.8,7.9,0.8z"/>
	<path class="st2" d="M8.1,13.2l0.5,1.1c0,0,2.9-1.5,3-5.8c0.1-4.3-3.7-7.7-3.7-7.7L8.1,13.2z"/>
</g>
</svg>
